<svg width="500" height="500" viewBox="0 0 500 500" fill="none" xmlns="http://www.w3.org/2000/svg">
<path d="M358.438 360.741C353.952 364.874 350.383 369.902 347.961 375.5C345.539 381.098 344.317 387.141 344.375 393.241C344.375 400.116 343.438 408.553 343.438 415.584C343.403 418.623 342.769 421.625 341.571 424.418C340.373 427.211 338.636 429.74 336.458 431.859C334.28 433.979 331.705 435.648 328.881 436.77C326.057 437.891 323.039 438.444 320 438.397H179.375C176.133 438.341 172.936 437.622 169.981 436.283C167.027 434.945 164.378 433.017 162.197 430.616C160.016 428.216 158.349 425.394 157.3 422.325C156.25 419.256 155.84 416.005 156.094 412.772L156.875 394.334C157.026 388.061 155.852 381.826 153.428 376.037C151.005 370.248 147.388 365.036 142.813 360.741C117.657 337.772 109.063 305.116 110 266.209C109.802 249.527 112.969 232.976 119.311 217.544C125.653 202.113 135.04 188.118 146.912 176.397C158.784 164.675 172.897 155.466 188.408 149.321C203.919 143.176 220.509 140.221 237.188 140.631H263.438C295.767 140.31 326.99 152.394 350.679 174.397C374.368 196.4 388.72 226.647 390.782 258.913C393.125 301.053 385.157 336.366 358.438 360.741Z" fill="#E5D1DD"/>
<path d="M297.47 312.5C314.729 312.5 328.72 298.509 328.72 281.25C328.72 263.991 314.729 250 297.47 250C280.211 250 266.22 263.991 266.22 281.25C266.22 298.509 280.211 312.5 297.47 312.5Z" fill="#843B62"/>
<path d="M203.72 312.5C220.979 312.5 234.97 298.509 234.97 281.25C234.97 263.991 220.979 250 203.72 250C186.461 250 172.47 263.991 172.47 281.25C172.47 298.509 186.461 312.5 203.72 312.5Z" fill="#843B62"/>
<path d="M235 406.25V438.438H203.75V406.25C203.75 402.106 205.397 398.132 208.327 395.201C211.257 392.271 215.231 390.625 219.375 390.625C223.519 390.625 227.494 392.271 230.424 395.201C233.354 398.132 235 402.106 235 406.25ZM297.501 406.25V438.438H266.251V406.25C266.251 402.106 267.897 398.132 270.827 395.201C273.757 392.271 277.731 390.625 281.876 390.625C286.02 390.625 289.994 392.271 292.924 395.201C295.854 398.132 297.501 402.106 297.501 406.25Z" fill="#C9ADC0"/>
<path d="M261.392 361.781H238.611C237.771 361.756 236.95 361.519 236.225 361.092C235.501 360.665 234.895 360.062 234.465 359.34C234.036 358.617 233.795 357.797 233.766 356.957C233.737 356.116 233.92 355.282 234.299 354.531L245.689 330.891C246.05 330.045 246.65 329.324 247.417 328.817C248.184 328.31 249.083 328.04 250.002 328.04C250.921 328.04 251.82 328.31 252.587 328.817C253.353 329.324 253.954 330.045 254.314 330.891L265.705 354.531C266.084 355.282 266.267 356.116 266.238 356.957C266.209 357.797 265.968 358.617 265.538 359.34C265.108 360.062 264.503 360.665 263.778 361.092C263.054 361.519 262.233 361.756 261.392 361.781V361.781ZM391.221 141.281C387.102 141.267 383.027 140.442 379.228 138.852C375.429 137.263 371.98 134.941 369.078 132.019C366.176 129.097 363.878 125.632 362.316 121.822C360.753 118.011 359.956 113.931 359.971 109.813C359.867 107.531 359.637 105.257 359.283 103C356.924 104.766 354.596 106.563 352.127 108.141C335.857 118.455 317.315 124.639 298.111 126.156H296.861C292.717 126.318 288.679 124.827 285.634 122.011C282.59 119.195 280.788 115.285 280.627 111.141C280.465 106.997 281.956 102.958 284.772 99.9136C287.588 96.8691 291.498 95.0679 295.642 94.9063C309.762 93.793 323.396 89.25 335.361 81.6719C339.654 78.913 343.691 75.7755 347.424 72.2969C341.674 64.4389 334.157 58.0434 325.48 53.6273C316.802 49.2111 307.207 46.8981 297.471 46.875H203.721C195.484 46.9037 187.334 48.5544 179.736 51.7328C172.137 54.9112 165.239 59.5552 159.436 65.3995C153.632 71.2438 149.036 78.174 145.911 85.7944C142.786 93.4148 141.192 101.576 141.221 109.813C141.235 113.931 140.438 118.011 138.875 121.822C137.313 125.632 135.015 129.097 132.113 132.019C129.211 134.941 125.762 137.263 121.963 138.852C118.164 140.442 114.089 141.267 109.971 141.281C101.734 141.31 93.5842 142.961 85.9858 146.139C78.3873 149.317 71.4894 153.961 65.6857 159.806C59.882 165.65 55.2863 172.58 52.161 180.201C49.0356 187.821 47.4418 195.982 47.4706 204.219C47.4562 206.28 47.8497 208.323 48.6284 210.232C49.4072 212.14 50.5558 213.876 52.0082 215.338C53.4606 216.801 55.1879 217.961 57.0908 218.753C58.9937 219.545 61.0345 219.953 63.0956 219.953H438.096C440.157 219.953 442.198 219.545 444.1 218.753C446.003 217.961 447.731 216.801 449.183 215.338C450.635 213.876 451.784 212.14 452.563 210.232C453.342 208.323 453.735 206.28 453.721 204.219C453.749 195.982 452.156 187.821 449.03 180.201C445.905 172.58 441.309 165.65 435.505 159.806C429.702 153.961 422.804 149.317 415.205 146.139C407.607 142.961 399.457 141.31 391.221 141.281V141.281Z" fill="#843B62"/>
</svg>
