<svg width="800" height="800" viewBox="0 0 800 800" fill="none" xmlns="http://www.w3.org/2000/svg">
<path d="M555.81 327.602C522.098 294.014 477.435 275.439 429.81 275.439C382.298 275.439 337.523 294.014 303.948 327.602C234.41 397.027 234.41 510.039 303.948 579.452C337.535 613.152 382.31 631.614 429.81 631.614C477.448 631.614 522.098 613.152 555.81 579.452C625.235 510.039 625.235 397.027 555.81 327.602ZM538.885 562.664C509.71 591.839 471.01 607.802 429.798 607.802C388.598 607.802 349.885 591.839 320.71 562.664C291.535 533.489 275.473 494.789 275.473 453.589C275.473 412.389 291.535 373.677 320.71 344.502C349.885 315.327 388.598 299.252 429.798 299.252C471.01 299.252 509.71 315.327 538.885 344.502C568.06 373.677 584.135 412.377 584.135 453.589C584.135 494.789 568.06 533.489 538.885 562.664Z" fill="#2B2F64"/>
<path d="M746.335 676.862L625.71 569.45C677.398 482.037 665.96 367.487 590.948 292.462C552.835 254.362 504.485 232.688 454.723 227.2C460.785 206.838 460.898 185.4 460.898 176L448.998 175.038L437.098 176.112C437.098 184.325 437.098 207.425 430.06 225.775C426.723 225.775 423.273 226.138 419.923 226.25C407.298 210.063 392.423 195.887 376.223 184.575C378.373 175.887 379.573 166.837 379.573 157.662C379.573 126.825 367.185 98.95 347.298 79.0625C349.085 47.275 364.798 25.3625 379.085 25.3625C385.76 25.3625 390.998 20.125 390.998 13.45C390.998 6.9 385.76 1.5375 379.085 1.5375C353.135 1.5375 331.823 26.9 325.26 62.15C310.01 53.3375 292.51 48.2125 273.935 48.2125C255.473 48.2125 238.098 53.2125 222.985 61.9C216.648 25.8375 195.098 0 168.66 0C162.11 0 156.76 5.2375 156.76 11.9125C156.76 18.4625 162.11 23.825 168.66 23.825C183.31 23.825 199.26 46.3375 200.81 78.9625C180.798 98.85 168.298 126.838 168.298 157.675C168.298 166.725 169.373 175.538 171.51 184.113C151.873 197.925 134.473 215.787 120.073 236.637C107.685 212.937 106.373 185.425 107.223 176.137C107.81 169.587 102.923 163.75 96.3852 163.15C89.8352 162.675 84.1227 167.437 83.5227 173.987C83.3977 174.462 79.5977 222.212 106.385 260.087C95.6727 280.812 88.5227 302.837 85.0727 326.062C41.0227 340.475 16.5977 378.7 25.4227 421.688C26.4852 427.4 31.4852 431.325 36.9727 431.325C37.7977 431.325 38.6352 431.212 39.3477 431.087C45.8977 429.787 50.0602 423.475 48.7602 417.037C42.4352 385.962 59.5852 363.812 82.6977 352.612C82.5727 354.275 82.5727 355.95 82.5727 357.612C82.5727 394.175 91.0227 433 106.385 468.725C86.0227 488.138 76.1352 515.287 79.7102 543.262C80.5352 549.337 85.6727 553.625 91.4977 553.625H93.1602C99.5977 552.663 104.248 546.713 103.398 540.163C101.023 522.538 106.26 505.15 117.573 491.575C148.173 548.613 196.998 593.388 256.41 601.125C260.335 605.775 264.273 610.3 268.685 614.7C313.098 659.112 371.448 681.388 429.798 681.388C469.935 681.388 510.073 670.55 545.673 649.475L653.098 770.1C669.885 788.8 690.36 799.388 710.848 799.988H712.635C729.073 799.988 744.435 793.438 757.06 780.813C770.16 767.713 776.823 751.637 776.348 734.487C775.635 714.025 765.035 693.537 746.335 676.862ZM273.923 72.05C293.948 72.05 312.16 79.675 326.448 92.0625C326.56 92.175 326.685 92.3 326.798 92.4125C344.423 108.138 355.723 131.588 355.723 157.675C355.723 162.2 355.385 166.725 354.66 171.137C329.173 157.675 301.548 150.65 273.91 150.65C245.81 150.65 218.31 157.8 193.173 170.9C192.585 166.612 192.11 162.2 192.11 157.675C192.123 110.513 228.81 72.05 273.923 72.05ZM106.385 357.6C106.385 351.287 106.735 344.625 107.46 337.238V336.637C110.323 311.15 118.06 286.862 130.673 264.6C161.998 208.987 216.885 174.45 273.923 174.45C302.273 174.45 330.735 183.025 356.098 199.45C368.848 207.55 380.748 217.675 391.348 229.225C346.323 236.85 303.21 257.8 268.685 292.462C193.06 367.962 181.985 483.825 235.085 571.475C159.735 544.562 106.385 444.062 106.385 357.6ZM285.485 597.913C280.598 592.913 275.948 587.788 271.56 582.425C271.56 582.425 271.435 582.313 271.435 582.188C206.298 502.163 210.935 383.8 285.485 309.25C325.26 269.475 377.535 249.587 429.81 249.587C482.098 249.587 534.373 269.475 574.148 309.25C653.685 388.8 653.685 518.363 574.148 597.913C494.61 677.463 365.035 677.463 285.485 597.913ZM740.135 763.912C731.685 772.375 721.923 776.538 711.573 776.175C697.873 775.813 683.11 767.838 670.96 754.138L565.685 636.25C574.498 629.7 582.96 622.675 590.948 614.7C598.923 606.712 605.935 598.262 612.498 589.45L730.498 694.725C744.073 706.75 752.06 721.513 752.535 735.213C752.76 745.825 748.598 755.462 740.135 763.912Z" fill="#2B2F64"/>
<path d="M752.524 735.216C752.761 745.816 748.599 755.466 740.136 763.916C731.686 772.378 721.924 776.541 711.574 776.178C697.874 775.816 683.111 767.841 670.961 754.141L565.686 636.253C574.499 629.703 582.961 622.678 590.949 614.703C598.924 606.716 605.936 598.266 612.499 589.453L730.499 694.728C744.061 706.766 752.049 721.528 752.524 735.216Z" fill="#E3B448"/>
<path d="M574.147 309.26C534.372 269.485 482.097 249.598 429.81 249.598C377.535 249.598 325.26 269.485 285.485 309.26C210.935 383.81 206.297 502.173 271.435 582.198C271.435 582.323 271.56 582.435 271.56 582.435C275.96 587.798 280.61 592.91 285.485 597.923C365.035 677.473 494.597 677.473 574.147 597.923C653.697 518.373 653.685 388.798 574.147 309.26ZM555.81 579.448C522.097 613.148 477.435 631.61 429.81 631.61C382.297 631.61 337.522 613.148 303.947 579.448C234.41 510.023 234.41 397.01 303.947 327.598C337.535 294.01 382.31 275.435 429.81 275.435C477.447 275.435 522.097 294.01 555.81 327.598C625.235 397.023 625.235 510.035 555.81 579.448Z" fill="#FEDC7D"/>
<path d="M584.139 453.593C584.139 494.793 568.064 533.493 538.889 562.668C509.714 591.843 471.014 607.806 429.801 607.806C388.601 607.806 349.889 591.843 320.714 562.668C291.539 533.493 275.476 494.793 275.476 453.593C275.476 412.393 291.539 373.681 320.714 344.506C349.889 315.331 388.601 299.256 429.801 299.256C471.014 299.256 509.714 315.331 538.889 344.506C568.064 373.681 584.139 412.393 584.139 453.593Z" fill="#D7E9F1"/>
<path d="M355.739 157.66C355.739 162.185 355.401 166.71 354.676 171.123C329.189 157.66 301.564 150.635 273.926 150.635C245.826 150.635 218.326 157.785 193.189 170.885C192.601 166.598 192.126 162.185 192.126 157.66C192.126 110.51 228.814 72.0352 273.926 72.0352C293.951 72.0352 312.164 79.6602 326.451 92.0477C326.564 92.1602 326.689 92.2852 326.801 92.3977C344.439 108.123 355.739 131.585 355.739 157.66Z" fill="#EDEDED"/>
<path d="M268.698 292.464C193.073 367.964 181.998 483.826 235.098 571.476C159.735 544.564 106.373 444.064 106.373 357.601C106.373 351.289 106.723 344.626 107.448 337.239V336.639C110.31 311.151 118.048 286.864 130.66 264.601C161.985 208.989 216.873 174.451 273.91 174.451C302.26 174.451 330.723 183.026 356.085 199.451C368.835 207.551 380.735 217.676 391.335 229.226C346.335 236.864 303.223 257.814 268.698 292.464Z" fill="#F26E62"/>
</svg>
